<?xml version="1.0" standalone="no"?>
<!-- Generator: Adobe Fireworks 10, Export SVG Extension by Aaron Beall (http://fireworks.abeall.com) . Version: 0.6.1  -->
<!DOCTYPE svg PUBLIC "-//W3C//DTD SVG 1.1//EN" "http://www.w3.org/Graphics/SVG/1.1/DTD/svg11.dtd">
<svg id="Untitled-Page%201" viewBox="0 0 267 54" style="background-color:#ffffff00" version="1.1"
	xmlns="http://www.w3.org/2000/svg" xmlns:xlink="http://www.w3.org/1999/xlink" xml:space="preserve"
	x="0px" y="0px" width="267px" height="54px"
>
	<g id="Layer%201">
		<g id="Logo">
			<g>
				<path d="M 164.7057 46.7668 C 165.6868 46.7668 166.4404 46.5241 166.9665 46.0385 C 167.4926 45.5529 167.7556 44.896 167.7556 44.0534 C 167.7556 43.2251 167.4926 42.561 166.9665 42.0683 C 166.4404 41.5828 165.6868 41.3329 164.7057 41.3329 L 161.2931 41.3329 L 161.2931 50.43 L 162.4448 50.43 L 162.4448 46.7668 L 164.7057 46.7668 L 164.7057 46.7668 ZM 162.4448 42.2683 L 164.7057 42.2683 C 165.3455 42.2683 165.8219 42.4397 166.1347 42.7753 C 166.4475 43.1109 166.6039 43.5393 166.6039 44.0606 C 166.6039 44.589 166.4475 45.0174 166.1347 45.3459 C 165.8219 45.6743 165.3455 45.8386 164.7057 45.8386 L 162.4448 45.8386 L 162.4448 42.2683 L 162.4448 42.2683 Z" fill="#abb2be"/>
				<path d="M 169.9055 47.131 C 169.9055 48.1593 170.1686 48.9804 170.7018 49.6088 C 171.2279 50.2372 171.9673 50.5513 172.92 50.5513 C 173.8584 50.5513 174.5907 50.2372 175.1239 49.6088 C 175.65 48.9804 175.9202 48.1593 175.9202 47.131 L 175.9202 46.9811 C 175.9202 45.9671 175.65 45.1388 175.1168 44.5033 C 174.5836 43.8678 173.8442 43.5464 172.9057 43.5464 C 171.9673 43.5464 171.2279 43.8678 170.7018 44.5033 C 170.1686 45.1388 169.9055 45.9671 169.9055 46.9811 L 169.9055 47.131 L 169.9055 47.131 ZM 171.0644 46.9811 C 171.0644 46.2599 171.2137 45.66 171.5194 45.1888 C 171.8251 44.7175 172.2872 44.4819 172.9057 44.4819 C 173.5172 44.4819 173.9864 44.7175 174.2992 45.1888 C 174.612 45.66 174.7684 46.2599 174.7684 46.9811 L 174.7684 47.131 C 174.7684 47.8665 174.612 48.4663 174.2992 48.9304 C 173.9864 49.3946 173.5314 49.6231 172.92 49.6231 C 172.2943 49.6231 171.8251 49.3946 171.5194 48.9304 C 171.2137 48.4734 171.0644 47.8736 171.0644 47.131 L 171.0644 46.9811 L 171.0644 46.9811 Z" fill="#abb2be"/>
				<path d="M 179.6982 40.6831 L 178.5464 40.6831 L 178.5464 50.43 L 179.6982 50.43 L 179.6982 40.6831 L 179.6982 40.6831 Z" fill="#abb2be"/>
				<path d="M 183.8387 43.6678 L 182.687 43.6678 L 182.687 50.43 L 183.8387 50.43 L 183.8387 43.6678 L 183.8387 43.6678 ZM 183.8387 40.6831 L 182.687 40.6831 L 182.687 41.9184 L 183.8387 41.9184 L 183.8387 40.6831 L 183.8387 40.6831 Z" fill="#abb2be"/>
				<path d="M 188.0007 48.9376 C 187.7234 48.4806 187.5883 47.8951 187.5883 47.181 L 187.5883 46.9168 C 187.5883 46.2242 187.7234 45.6458 188.0078 45.1816 C 188.285 44.7175 188.7614 44.4819 189.4297 44.4819 C 189.8918 44.4819 190.2686 44.6318 190.5672 44.9174 C 190.8587 45.2031 191.008 45.5672 191.0151 45.9957 L 192.11 45.9957 C 192.1028 45.2816 191.854 44.6889 191.3563 44.2319 C 190.8587 43.7749 190.2188 43.5464 189.4297 43.5464 C 188.4343 43.5464 187.6878 43.8678 187.1831 44.4961 C 186.6783 45.1316 186.4295 45.9385 186.4295 46.9168 L 186.4295 47.181 C 186.4295 48.1664 186.6783 48.9804 187.1831 49.6088 C 187.6878 50.2372 188.4343 50.5513 189.4297 50.5513 C 190.1548 50.5513 190.7805 50.33 191.3066 49.8873 C 191.8327 49.4446 192.1028 48.9162 192.11 48.3021 L 191.0151 48.3021 C 191.008 48.6877 190.8516 49.0018 190.5388 49.2518 C 190.2259 49.5017 189.8562 49.6231 189.4297 49.6231 C 188.7543 49.6231 188.2779 49.3946 188.0007 48.9376 L 188.0007 48.9376 Z" fill="#abb2be"/>
				<path d="M 195.0632 43.6678 L 193.7764 43.6678 L 196.2932 50.2943 L 195.9875 51.0226 C 195.7955 51.4653 195.6391 51.7652 195.5111 51.9295 C 195.3831 52.0794 195.177 52.158 194.8997 52.158 C 194.8499 52.158 194.7433 52.1508 194.5869 52.1437 C 194.4234 52.1223 194.3523 52.1223 194.3665 52.1294 L 194.2456 53.0577 C 194.3309 53.0791 194.4447 53.1005 194.5869 53.1291 C 194.7291 53.1434 194.8571 53.1577 194.9566 53.1577 C 195.4969 53.1577 195.9235 52.9863 196.2363 52.665 C 196.542 52.3293 196.7837 51.9295 196.9543 51.4725 L 199.8053 43.6678 L 198.5113 43.6678 L 196.8051 48.8947 L 196.7837 48.8947 L 196.5491 47.995 L 195.0632 43.6678 L 195.0632 43.6678 Z" fill="#abb2be"/>
				<path d="M 212.0677 50.43 L 213.2479 50.43 L 209.8069 41.3329 L 208.8116 41.3329 L 205.3137 50.43 L 206.4939 50.43 L 207.3826 48.0022 L 211.1933 48.0022 L 212.0677 50.43 L 212.0677 50.43 ZM 209.3021 42.761 L 210.8591 47.0739 L 207.7238 47.0739 L 209.3021 42.761 L 209.3021 42.761 Z" fill="#abb2be"/>
				<path d="M 215.5755 43.6678 L 215.5755 50.43 L 216.7344 50.43 L 216.7344 45.5244 C 216.905 45.2102 217.1254 44.9603 217.4027 44.7746 C 217.6729 44.5961 217.9999 44.5033 218.3838 44.5033 C 218.8815 44.5033 219.244 44.6318 219.4787 44.8817 C 219.7133 45.1316 219.8341 45.5672 219.8341 46.1885 L 219.8341 50.43 L 220.993 50.43 L 220.993 46.1599 C 220.993 45.253 220.7939 44.589 220.41 44.1748 C 220.019 43.7607 219.4573 43.5464 218.7251 43.5464 C 218.2772 43.5464 217.8861 43.6464 217.5449 43.8463 C 217.2036 44.0463 216.9264 44.3319 216.7131 44.6889 L 216.6917 44.6818 L 216.6135 43.6678 L 215.5755 43.6678 L 215.5755 43.6678 Z" fill="#abb2be"/>
				<path d="M 229.1575 50.43 C 229.0865 50.2086 229.0438 49.9872 229.0154 49.7659 C 228.9869 49.5445 228.9798 49.3089 228.9798 49.0661 L 228.9798 45.8029 C 228.9798 45.0674 228.7452 44.5104 228.2831 44.1248 C 227.821 43.7392 227.2024 43.5464 226.4275 43.5464 C 225.6312 43.5464 224.9914 43.7535 224.5008 44.1534 C 224.0032 44.5604 223.7614 45.0245 223.7614 45.5458 L 224.9132 45.5458 C 224.9132 45.253 225.0412 45.0031 225.3113 44.796 C 225.5815 44.589 225.9298 44.4819 226.3706 44.4819 C 226.8327 44.4819 227.1882 44.6032 227.4442 44.8317 C 227.7001 45.0602 227.8281 45.3816 227.8281 45.7957 L 227.8281 46.4812 L 226.527 46.4812 C 225.617 46.4812 224.899 46.6597 224.3871 47.0168 C 223.8752 47.3738 223.6192 47.8879 223.6192 48.5448 C 223.6192 49.1875 223.797 49.6802 224.1525 50.0301 C 224.5079 50.38 225.0483 50.5513 225.7592 50.5513 C 226.1858 50.5513 226.5768 50.4514 226.9323 50.2514 C 227.2878 50.0515 227.5863 49.7944 227.8281 49.4731 C 227.8352 49.6302 227.8494 49.773 227.8707 49.9087 C 227.8921 50.0444 227.9205 50.2157 227.9632 50.43 L 229.1575 50.43 L 229.1575 50.43 ZM 225.0554 49.3017 C 224.8634 49.1304 224.771 48.8805 224.771 48.5663 C 224.771 48.2164 224.9203 47.9165 225.226 47.6594 C 225.5317 47.4095 225.9512 47.281 226.4915 47.281 L 227.8281 47.281 L 227.8281 48.5234 C 227.6717 48.8162 227.4228 49.059 227.0816 49.2589 C 226.7403 49.4588 226.3493 49.5588 225.9227 49.5588 C 225.5388 49.5588 225.2473 49.4731 225.0554 49.3017 L 225.0554 49.3017 Z" fill="#abb2be"/>
				<path d="M 232.8431 40.6831 L 231.6914 40.6831 L 231.6914 50.43 L 232.8431 50.43 L 232.8431 40.6831 L 232.8431 40.6831 Z" fill="#abb2be"/>
				<path d="M 236.2869 43.6678 L 235.0001 43.6678 L 237.5169 50.2943 L 237.2112 51.0226 C 237.0192 51.4653 236.8628 51.7652 236.7348 51.9295 C 236.6069 52.0794 236.4007 52.158 236.1234 52.158 C 236.0737 52.158 235.967 52.1508 235.8106 52.1437 C 235.6471 52.1223 235.576 52.1223 235.5902 52.1294 L 235.4693 53.0577 C 235.5547 53.0791 235.6684 53.1005 235.8106 53.1291 C 235.9528 53.1434 236.0808 53.1577 236.1803 53.1577 C 236.7206 53.1577 237.1472 52.9863 237.46 52.665 C 237.7657 52.3293 238.0074 51.9295 238.1781 51.4725 L 241.029 43.6678 L 239.735 43.6678 L 238.0288 48.8947 L 238.0074 48.8947 L 237.7728 47.995 L 236.2869 43.6678 L 236.2869 43.6678 Z" fill="#abb2be"/>
				<path d="M 243.2998 42.0255 L 243.2998 43.6678 L 242.3329 43.6678 L 242.3329 44.5533 L 243.2998 44.5533 L 243.2998 48.6877 C 243.2998 49.3446 243.4277 49.823 243.6979 50.1158 C 243.961 50.4085 244.3306 50.5513 244.7999 50.5513 C 244.9847 50.5513 245.1767 50.5299 245.3757 50.4871 C 245.5677 50.4442 245.717 50.3871 245.8236 50.3157 L 245.6672 49.5017 C 245.5819 49.5302 245.4824 49.5445 245.3828 49.5588 C 245.2833 49.5731 245.1838 49.5802 245.0842 49.5802 C 244.8852 49.5802 244.7359 49.516 244.6221 49.3874 C 244.5084 49.2589 244.4586 49.0233 244.4586 48.6877 L 244.4586 44.5533 L 245.7525 44.5533 L 245.7525 43.6678 L 244.4586 43.6678 L 244.4586 42.0255 L 243.2998 42.0255 L 243.2998 42.0255 Z" fill="#abb2be"/>
				<path d="M 249.3599 43.6678 L 248.2082 43.6678 L 248.2082 50.43 L 249.3599 50.43 L 249.3599 43.6678 L 249.3599 43.6678 ZM 249.3599 40.6831 L 248.2082 40.6831 L 248.2082 41.9184 L 249.3599 41.9184 L 249.3599 40.6831 L 249.3599 40.6831 Z" fill="#abb2be"/>
				<path d="M 253.5218 48.9376 C 253.2445 48.4806 253.1095 47.8951 253.1095 47.181 L 253.1095 46.9168 C 253.1095 46.2242 253.2445 45.6458 253.5289 45.1816 C 253.8062 44.7175 254.2825 44.4819 254.9508 44.4819 C 255.4129 44.4819 255.7897 44.6318 256.0883 44.9174 C 256.3798 45.2031 256.5291 45.5672 256.5362 45.9957 L 257.6311 45.9957 C 257.624 45.2816 257.3752 44.6889 256.8775 44.2319 C 256.3798 43.7749 255.74 43.5464 254.9508 43.5464 C 253.9555 43.5464 253.209 43.8678 252.7042 44.4961 C 252.1994 45.1316 251.9506 45.9385 251.9506 46.9168 L 251.9506 47.181 C 251.9506 48.1664 252.1994 48.9804 252.7042 49.6088 C 253.209 50.2372 253.9555 50.5513 254.9508 50.5513 C 255.676 50.5513 256.3016 50.33 256.8277 49.8873 C 257.3538 49.4446 257.624 48.9162 257.6311 48.3021 L 256.5362 48.3021 C 256.5291 48.6877 256.3727 49.0018 256.0599 49.2518 C 255.7471 49.5017 255.3774 49.6231 254.9508 49.6231 C 254.2754 49.6231 253.7991 49.3946 253.5218 48.9376 L 253.5218 48.9376 Z" fill="#abb2be"/>
				<path d="M 263.5846 49.3589 C 263.3286 49.5374 262.9732 49.6231 262.511 49.6231 C 262.0845 49.6231 261.7148 49.5302 261.4091 49.3303 C 261.0963 49.1375 260.9327 48.809 260.9114 48.352 L 259.7597 48.352 C 259.7597 48.9661 260.0014 49.4874 260.4848 49.9158 C 260.9683 50.3443 261.6437 50.5513 262.511 50.5513 C 263.3002 50.5513 263.933 50.3728 264.4022 50.0158 C 264.8714 49.6588 265.1131 49.1732 265.1131 48.5591 C 265.1131 48.0236 264.907 47.6023 264.5017 47.2952 C 264.0965 46.9882 263.4637 46.7383 262.6106 46.5526 C 261.9992 46.4241 261.6082 46.2813 261.4233 46.1313 C 261.2385 45.9814 261.146 45.7672 261.146 45.4815 C 261.146 45.2031 261.2527 44.9674 261.4659 44.7746 C 261.6792 44.5818 262.0205 44.4819 262.4826 44.4819 C 262.9163 44.4819 263.2575 44.6032 263.5135 44.8389 C 263.7623 45.0745 263.8903 45.3459 263.8903 45.6529 L 265.042 45.6529 C 265.042 45.046 264.8145 44.5461 264.3595 44.1462 C 263.9045 43.7464 263.2789 43.5464 262.4826 43.5464 C 261.7219 43.5464 261.1176 43.7392 260.6697 44.1177 C 260.2147 44.4961 259.9943 44.9603 259.9943 45.5172 C 259.9943 46.0599 260.1934 46.4741 260.5915 46.774 C 260.9896 47.0739 261.6082 47.3167 262.4399 47.4952 C 263.0371 47.6237 263.4353 47.7808 263.6486 47.9522 C 263.8547 48.1307 263.9614 48.3592 263.9614 48.6448 C 263.9614 48.9447 263.8334 49.1875 263.5846 49.3589 L 263.5846 49.3589 Z" fill="#abb2be"/>
			</g>
			<g>
				<path d="M 21.4697 0.876 C 27.9921 0.876 34.5138 0.8906 41.0362 0.8551 C 41.7335 0.8509 41.8623 0.9831 41.8607 1.679 C 41.833 15.1532 41.8403 28.6268 41.8403 42.101 C 40.7797 41.4877 39.7332 40.8472 38.6532 40.2695 C 37.7245 39.7722 36.7744 39.3053 35.8011 38.9033 C 35.1976 38.6538 35.4802 38.1974 35.4075 37.8178 C 35.4075 37.1293 35.4447 36.4386 35.3981 35.7537 C 35.3379 34.867 35.4263 34.1056 36.2168 33.4918 C 36.7089 33.1097 36.2205 33.0229 35.9048 33.004 C 35.5614 32.9837 35.2159 32.9993 34.8714 32.9993 C 34.3752 32.9617 34.3354 33.2947 34.3354 33.6592 C 34.3354 34.7838 34.25 35.9178 34.3652 37.0304 C 34.4432 37.7838 34.0783 38.2994 33.7993 38.8886 C 33.0559 39.0476 32.2309 38.5556 31.5393 39.2483 C 31.1247 39.6624 30.3672 39.5861 30.0452 39.3806 C 28.7307 38.542 27.324 38.9242 25.9687 38.9085 C 21.432 38.8557 16.8943 38.8886 12.3566 38.8886 C 11.2912 37.9664 11.2907 37.9664 11.2849 36.4658 C 11.2829 36.024 11.2844 35.5827 11.2844 35.1409 C 11.2195 34.6913 11.6121 34.5187 11.8613 34.3226 C 12.4665 33.8458 12.8586 34 12.8864 34.6876 C 12.9152 35.3976 12.8675 36.1107 12.8984 36.8208 C 12.9471 37.9532 13.3832 38.3532 14.4998 38.3532 C 15.6227 38.3532 16.0101 37.9961 16.1033 36.8224 C 16.1383 36.3811 16.0268 35.9147 16.1263 35.4938 C 16.3294 34.6369 17.2309 34.5067 18.2533 35.1409 C 17.5445 35.9262 17.7481 36.8919 17.7099 37.8147 C 17.6958 38.1451 17.8549 38.3124 18.1272 38.3433 C 18.4973 38.3856 18.8124 38.3036 18.7936 37.8058 C 18.7742 37.2799 18.8538 36.7434 18.7752 36.2284 C 18.636 35.3202 20.0442 36.035 19.8615 35.1409 C 20.408 35.212 20.8881 35.1163 21.2017 34.6055 C 21.5152 34.0947 21.9953 33.999 22.5418 34.0701 C 22.913 34.0837 23.0916 33.9054 23.0779 33.5347 C 24.7348 33.7951 26.2289 32.5905 27.9025 32.9993 C 29.1354 32.9993 30.3683 32.9952 31.6011 33.0025 C 31.8623 33.004 32.1152 32.9669 32.1057 32.6674 C 32.1021 32.5392 31.8503 32.4352 31.7576 32.2904 C 31.4629 31.8297 31.0111 31.9275 30.5829 31.9285 C 30.5829 31.7503 30.5829 31.5715 30.5829 31.3932 C 31.6252 31.2065 30.9541 30.4024 31.1022 29.8984 C 31.1729 29.66 31.1661 29.2861 31.4106 29.3117 C 31.6869 29.3405 31.6587 29.7169 31.6555 29.98 C 31.6535 30.1577 31.6571 30.3355 31.6545 30.5138 C 31.6477 30.9545 31.5838 31.4178 32.268 31.3979 C 32.802 31.3827 33.3863 31.4915 33.268 30.6283 C 33.203 30.154 33.2596 29.7415 33.9139 29.7828 C 34.2689 29.8053 34.628 29.8105 34.9819 29.7807 C 35.3698 29.7483 35.9132 29.9888 35.9488 29.2558 C 35.9844 28.5285 35.3038 28.8647 35.0395 28.6048 C 34.7824 28.3528 34.55 28.1479 34.1427 28.1735 C 31.611 28.3325 29.1752 27.499 26.6126 27.5906 C 21.4519 27.7746 16.2802 27.6544 11.1127 27.6303 C 10.6499 27.6282 9.905 27.9576 9.7898 27.3249 C 9.7354 27.0259 10.4646 26.5762 10.8515 26.2076 C 11.2263 25.851 11.6975 26.0524 12.1168 26.0503 C 15.4133 26.0304 18.7093 26.0393 22.0058 26.0393 C 21.9644 26.5658 22.3314 26.5736 22.6952 26.5736 C 24.8317 26.5757 26.9686 26.5684 29.1051 26.5789 C 29.7165 26.5815 30.5201 26.398 30.9001 26.709 C 31.8146 27.4562 32.7774 26.9333 33.6914 27.1048 C 34.2286 27.2052 34.6541 26.7232 34.6976 26.4262 C 34.8055 25.6879 34.0867 26.0199 33.8307 26.068 C 31.9675 26.4167 30.2656 25.3654 28.4386 25.5039 C 28.6171 25.1468 28.7962 24.7902 28.9747 24.4331 C 28.9747 23.6358 28.9888 22.8384 28.9569 22.0427 C 28.9527 21.9423 28.7176 21.8032 28.5689 21.7666 C 28.302 21.7007 27.9439 21.7907 27.9245 22.0438 C 27.8649 22.8358 27.9025 23.6358 27.9025 24.4331 C 27.9413 24.9356 27.6 24.968 27.2356 24.9685 C 25.4923 24.969 23.7491 24.9685 22.0058 24.9685 C 21.8272 24.9685 21.6482 24.9685 21.4697 24.9685 C 21.4697 24.7902 21.4697 24.6114 21.4697 24.4331 C 21.6482 24.4331 21.8272 24.4331 22.0058 24.4331 C 22.1843 24.4331 22.3633 24.4331 22.5418 24.4331 C 23.0779 24.4331 23.614 24.4331 24.15 24.4331 C 24.6505 24.3437 25.441 24.7128 25.6033 24.2412 C 25.841 23.5516 25.8373 22.6827 25.641 21.9711 C 25.4908 21.4273 24.8688 21.0388 24.15 21.2208 C 23.6469 21.2595 23.6465 20.9154 23.604 20.5562 C 23.5721 20.2885 23.4046 20.0893 23.0779 20.15 C 22.6597 18.9182 22.6533 17.5687 22.0058 16.4023 C 21.7131 15.8915 21.421 15.3801 21.1284 14.8693 C 20.7232 15.3989 20.9907 16.007 20.9457 16.5764 C 20.9164 16.9565 20.7861 17.4746 21.4697 17.473 C 21.4697 19.2575 21.4697 21.0425 21.4697 22.8269 C 21.4697 23.3623 21.4697 23.8977 21.4697 24.4331 C 20.4332 24.2533 21.1268 23.4455 20.9352 22.9587 C 20.7127 22.393 21.4352 21.536 20.3976 21.2208 C 19.8615 21.2208 19.3254 21.2208 18.7894 21.2208 C 18.4182 21.2072 18.2397 21.3854 18.2533 21.7561 C 17.2204 21.5052 17.9214 20.677 17.7172 20.15 C 17.5147 18.5574 18.3072 17.2101 18.7716 15.7775 C 18.8674 15.4816 18.9208 15.0262 18.5334 14.8343 C 18.3308 14.7339 18.0722 14.817 17.8077 14.9441 C 16.2629 15.6886 15.3149 17.1044 14.0475 18.1538 C 13.5255 18.5862 13.335 19.544 12.3628 19.3532 C 12.4131 18.5616 12.9146 17.9781 13.2952 17.3387 C 15.0212 14.44 17.2942 12.4428 20.9389 12.6472 C 21.8278 12.6969 22.7219 12.6546 23.614 12.6546 C 23.5533 12.9907 23.7794 13.0775 24.0317 13.1962 C 25.297 13.7912 26.7215 14.0008 27.9025 14.7961 C 29.3249 15.5626 30.4672 16.6187 31.365 17.9718 C 32.5769 19.7986 33.9857 21.5387 33.7857 23.9187 C 33.7343 24.5252 33.9475 24.9194 34.3767 25.2895 C 34.6898 25.5588 35.0054 25.6383 35.2856 25.3366 C 35.4908 25.1154 35.9729 24.9821 35.8205 24.5957 C 34.9149 22.2952 34.6013 19.7124 33.1329 17.7015 C 31.988 16.1335 30.5017 14.7261 28.4386 14.2607 C 28.4993 13.9245 28.2732 13.8377 28.0208 13.7191 C 26.7555 13.124 25.3311 12.9144 24.15 12.1191 C 24.1438 11.3877 23.5847 11.6141 23.1962 11.5895 C 22.435 11.5414 21.7231 11.5958 20.9797 11.1106 C 20.5295 10.8167 20.4138 10.6316 20.3913 10.183 C 20.3018 8.3955 20.2934 8.395 22.2052 8.3719 C 22.6491 8.3667 23.0936 8.3625 23.5376 8.3745 C 23.8009 8.3819 24.06 8.3416 24.0747 8.0488 C 24.0804 7.9301 23.817 7.8167 23.7245 7.6703 C 23.4297 7.2044 22.9753 7.2965 22.5418 7.3006 C 22.5392 6.5917 22 6.7972 21.6131 6.7694 C 21.2572 6.7443 20.9299 6.7522 20.9232 6.2429 C 20.9195 5.924 21.0603 5.7405 21.3268 5.7023 C 22.3602 5.5554 22.244 5.0791 21.6425 4.5442 C 20.9839 3.9586 20.6436 3.5027 21.42 2.6583 C 21.7241 2.3279 21.4697 1.4851 21.4697 0.876 ZM 24.6861 37.0629 C 24.6861 36.6634 24.6767 36.3115 24.6877 35.9607 C 24.7144 35.1116 24.1857 34.7294 23.459 34.6186 C 22.6523 34.4957 22.067 35.0724 22.0126 35.9947 C 21.9765 36.6075 21.9932 37.2245 22.0147 37.8383 C 22.0199 37.9888 22.134 38.2623 22.2047 38.2644 C 22.9727 38.2874 23.7752 38.3961 24.4993 38.2121 C 24.9385 38.1007 24.5835 37.4236 24.6861 37.0629 ZM 29.5108 36.643 C 29.5108 36.2943 29.5254 35.9445 29.5066 35.5963 C 29.4888 35.2685 29.6584 34.845 29.2746 34.6562 C 28.7904 34.4183 28.5245 34.8423 28.1899 35.1048 C 27.5151 35.6334 27.2393 36.2854 27.3644 37.1272 C 27.4895 37.97 28.1235 38.4494 28.9695 38.3574 C 29.8453 38.2617 29.4035 37.593 29.5044 37.1653 C 29.5432 37.0001 29.5108 36.8177 29.5108 36.643 ZM 33.2632 36.5019 C 33.2632 36.0616 33.2428 35.6203 33.27 35.1822 C 33.2894 34.8721 33.1543 34.6437 32.8889 34.6259 C 32.6669 34.6113 32.3795 34.72 32.2162 34.8743 C 31.9806 35.096 31.6262 35.2476 31.6466 35.6904 C 31.6786 36.3926 31.6576 37.0979 31.6545 37.8016 C 31.6513 38.5132 32.1848 38.3307 32.5816 38.3485 C 32.9418 38.3648 33.2904 38.3412 33.2674 37.8215 C 33.248 37.3823 33.2632 36.9416 33.2632 36.5019 ZM 31.119 23.1103 C 31.119 23.4611 31.0069 23.8658 31.1441 24.1502 C 31.3755 24.6287 31.9152 24.442 32.3204 24.4174 C 32.8015 24.3887 32.878 23.8004 32.702 23.6614 C 32.1167 23.1982 32.211 22.6126 32.1513 22.0181 C 32.1403 21.9099 31.7315 21.7964 31.498 21.7755 C 31.3807 21.765 31.153 21.9449 31.1362 22.061 C 31.0875 22.405 31.119 22.76 31.119 23.1103 Z" fill="none"/>
				<path d="M 0.027 39.424 C 0.027 26.8424 0.0346 14.2607 0.0065 1.679 C 0.005 0.9831 0.1338 0.8509 0.8311 0.8551 C 7.3532 0.8906 13.8753 0.876 20.3976 0.876 C 20.3348 1.1975 20.552 1.5677 20.2321 1.8442 C 19.193 2.7425 18.8072 3.7103 19.8312 4.8971 C 19.9265 5.0079 19.8312 5.4723 19.6877 5.5674 C 18.8475 6.1258 20.1196 6.3303 19.8615 6.7652 C 19.0945 6.5117 18.6449 7.2661 17.9659 7.39 C 17.5733 7.4617 16.978 7.9092 17.6963 8.6872 C 18.7255 9.8024 18.4957 10.7822 17.1676 11.5555 C 16.6938 11.8316 16.2431 12.0784 16.1336 12.5897 C 16.0441 13.0095 15.885 13.0974 15.4934 13.2082 C 11.4629 14.349 7.8906 17.8652 6.5148 22.5049 C 6.1499 23.7356 5.835 24.4655 5.0189 25.0323 C 4.0833 25.6822 4.5841 26.0262 5.0924 26.583 C 5.6814 27.2288 5.4914 27.6381 4.5532 27.6114 C 3.7504 27.5879 3.2695 27.9011 2.7105 28.3967 C 2.1448 28.8981 2.2364 29.1549 2.7316 29.5721 C 2.9099 29.7222 3.5177 30.1415 2.9735 30.2612 C 1.6985 30.5415 1.9545 31.2844 2.6707 31.5448 C 4.4137 32.179 4.4171 33.4333 4.327 34.8779 C 4.2663 35.8546 4.3156 36.8375 4.3156 37.8178 C 4.311 38.5378 3.7551 38.2754 3.3768 38.36 C 2.9458 38.4568 2.259 38.0066 2.1712 38.8886 C 1.7457 38.8892 1.307 38.7966 0.9999 39.2447 C 0.7544 39.6033 0.3518 39.3571 0.027 39.424 Z" fill="none"/>
				<path d="M 23.614 44.2425 C 23.6768 44.0909 23.7412 43.8055 23.8014 43.8065 C 25.7274 43.8363 26.9691 41.8024 28.9747 42.101 C 29.3883 43.0599 29.9772 42.5888 30.6122 42.3566 C 33.2507 41.3899 33.2726 41.381 35.4326 42.651 C 36.1896 43.096 36.8482 43.7072 37.5518 44.2425 C 32.9056 44.2425 28.2601 44.2425 23.614 44.2425 Z" fill="none"/>
				<path d="M 10.2123 41.5656 C 12.0723 41.5656 13.9323 41.5833 15.7918 41.5588 C 16.8917 41.5447 18.0894 41.8741 18.8898 40.6841 C 19.1804 40.2522 19.7149 40.5157 20.1306 40.5068 C 21.6351 40.476 23.1412 40.4843 24.6468 40.5026 C 24.9793 40.5068 25.5185 40.3081 25.6101 40.659 C 25.7954 41.3695 25.0196 41.0427 24.7526 41.1588 C 23.7805 41.5839 22.7146 41.7904 21.6917 42.1041 C 20.3206 42.5245 20.2154 42.8413 20.9337 44.2425 C 20.219 44.2425 19.5039 44.2425 18.7894 44.2425 C 18.724 42.663 18.724 42.6426 17.612 42.6405 C 15.1322 42.6353 12.7183 41.7371 10.2123 42.101 C 10.2123 41.9227 10.2123 41.7439 10.2123 41.5656 Z" fill="none"/>
				<path d="M 37.5518 44.2425 C 36.8482 43.7072 36.1896 43.096 35.4326 42.651 C 33.2726 41.381 33.2507 41.3899 30.6122 42.3566 C 29.9772 42.5888 29.3883 43.0599 28.9747 42.101 C 29.149 42.101 29.327 42.1229 29.4966 42.0947 C 29.6526 42.068 29.9065 42.0157 29.9306 41.9253 C 30.018 41.5943 29.7715 41.5499 29.5108 41.5656 C 30.2311 40.5711 31.6393 40.9178 32.4916 40.0441 C 32.6979 39.8329 33.2612 39.411 33.7993 39.424 C 33.8778 39.8047 33.5548 40.3181 34.216 40.4995 C 36.854 41.2236 39.2291 42.4513 41.3043 44.2425 C 40.0536 44.2425 38.8024 44.2425 37.5518 44.2425 Z" fill="#363635"/>
				<path d="M 34.3354 39.424 C 34.349 39.0533 34.1705 38.875 33.7993 38.8886 C 34.0783 38.2994 34.4432 37.7838 34.3652 37.0304 C 34.25 35.9178 34.3354 34.7838 34.3354 33.6592 C 34.3354 33.2947 34.3752 32.9617 34.8714 32.9993 C 34.8714 34.3854 34.8714 35.7709 34.8714 37.1569 C 34.8714 37.5214 34.9096 37.8555 35.4075 37.8178 C 35.4802 38.1974 35.1976 38.6538 35.8011 38.9033 C 36.7744 39.3053 37.7245 39.7722 38.6532 40.2695 C 39.7332 40.8472 40.7797 41.4877 41.8403 42.101 C 41.8403 42.2793 41.8403 42.4581 41.8403 42.6363 C 41.1561 42.6097 40.5734 42.5961 39.8971 42.1208 C 38.2109 40.9351 36.3775 39.9338 34.3354 39.424 Z" fill="#40403e"/>
				<path d="M 19.8615 6.7652 C 20.1196 6.3303 18.8475 6.1258 19.6877 5.5674 C 19.8312 5.4723 19.9265 5.0079 19.8312 4.8971 C 18.8072 3.7103 19.193 2.7425 20.2321 1.8442 C 20.552 1.5677 20.3348 1.1975 20.3976 0.876 C 20.7552 0.876 21.1122 0.876 21.4697 0.876 C 21.4697 1.4851 21.7241 2.3279 21.42 2.6583 C 20.6436 3.5027 20.9839 3.9586 21.6425 4.5442 C 22.244 5.0791 22.3602 5.5554 21.3268 5.7023 C 21.0603 5.7405 20.9195 5.924 20.9232 6.2429 C 20.9299 6.7522 21.2572 6.7443 21.6131 6.7694 C 22 6.7972 22.5392 6.5917 22.5418 7.3006 C 21.6158 7.2865 20.6499 7.469 19.8615 6.7652 Z" fill="#3f3f3f"/>
				<path d="M 34.3354 39.424 C 36.3775 39.9338 38.2109 40.9351 39.8971 42.1208 C 40.5734 42.5961 41.1561 42.6097 41.8403 42.6363 C 41.8403 43.0823 41.8225 43.5294 41.845 43.9748 C 41.8717 44.5134 41.4692 44.1259 41.3043 44.2425 C 39.2291 42.4513 36.854 41.2236 34.216 40.4995 C 33.5548 40.3181 33.8778 39.8047 33.7993 39.424 C 33.9778 39.424 34.1569 39.424 34.3354 39.424 Z" fill="none"/>
				<path d="M 0.027 43.7072 C 2.8861 43.7072 5.745 43.7072 8.6041 43.7072 C 8.6041 43.8854 8.6041 44.0642 8.6041 44.2425 C 5.8345 44.2425 3.0646 44.2352 0.295 44.2488 C -0.2437 44.2514 0.1437 43.8718 0.027 43.7072 Z" fill="none"/>
				<path d="M 8.6041 44.2425 C 8.6041 44.0642 8.6041 43.8854 8.6041 43.7072 C 10.0338 43.7072 11.4629 43.7072 12.8926 43.7072 C 12.8926 43.8854 12.8926 44.0642 12.8926 44.2425 C 11.4629 44.2425 10.0338 44.2425 8.6041 44.2425 Z" fill="#96959e"/>
				<path d="M 12.8926 44.2425 C 12.8926 44.0642 12.8926 43.8854 12.8926 43.7072 C 14.1029 43.7072 15.3128 43.7072 16.5231 43.7072 C 16.8875 43.7072 17.2183 43.7495 17.1812 44.2425 C 15.7515 44.2425 14.3223 44.2425 12.8926 44.2425 Z" fill="#4b4a61"/>
				<g>
					<path d="M 0.027 39.424 C 0.3518 39.3571 0.7544 39.6033 0.9999 39.2447 C 1.307 38.7966 1.7457 38.8892 2.1712 38.8886 C 5.5665 38.8886 8.9616 38.8886 12.3566 38.8886 C 16.8943 38.8886 21.432 38.8557 25.9687 38.9085 C 27.324 38.9242 28.7307 38.542 30.0452 39.3806 C 30.3672 39.5861 31.1247 39.6624 31.5393 39.2483 C 32.2309 38.5556 33.0559 39.0476 33.7993 38.8886 C 34.1705 38.875 34.349 39.0533 34.3354 39.424 C 34.1569 39.424 33.9778 39.424 33.7993 39.424 C 33.2612 39.411 32.6979 39.8329 32.4916 40.0441 C 31.6393 40.9178 30.2311 40.5711 29.5108 41.5656 C 29.1396 41.552 28.9611 41.7303 28.9747 42.101 C 26.9691 41.8024 25.7274 43.8363 23.8014 43.8065 C 23.7412 43.8055 23.6768 44.0909 23.614 44.2425 C 22.7204 44.2425 21.8272 44.2425 20.9337 44.2425 C 20.2154 42.8413 20.3206 42.5245 21.6917 42.1041 C 22.7146 41.7904 23.7805 41.5839 24.7526 41.1588 C 25.0196 41.0427 25.7954 41.3695 25.6101 40.659 C 25.5185 40.3081 24.9793 40.5068 24.6468 40.5026 C 23.1412 40.4843 21.6351 40.476 20.1306 40.5068 C 19.7149 40.5157 19.1804 40.2522 18.8898 40.6841 C 18.0894 41.8741 16.8917 41.5447 15.7918 41.5588 C 13.9323 41.5833 12.0723 41.5656 10.2123 41.5656 C 8.2533 41.5656 6.2949 41.5619 4.3362 41.5729 C 4.1818 41.574 3.9135 41.656 3.8941 41.7433 C 3.8193 42.0811 4.076 42.1036 4.3362 42.103 C 6.2949 42.0994 8.2533 42.101 10.2123 42.101 C 12.7183 41.7371 15.1322 42.6353 17.612 42.6405 C 18.724 42.6426 18.724 42.663 18.7894 44.2425 C 18.2533 44.2425 17.7172 44.2425 17.1812 44.2425 C 17.2183 43.7495 16.8875 43.7072 16.5231 43.7072 C 15.3128 43.7072 14.1029 43.7072 12.8926 43.7072 C 11.4629 43.7072 10.0338 43.7072 8.6041 43.7072 C 5.745 43.7072 2.8861 43.7072 0.027 43.7072 C 0.027 42.2793 0.027 40.8519 0.027 39.424 Z" fill="#181e2d"/>
					<path d="M 19.8615 6.7652 C 20.6499 7.469 21.6158 7.2865 22.5418 7.3006 C 22.9753 7.2965 23.4297 7.2044 23.7245 7.6703 C 23.817 7.8167 24.0804 7.9301 24.0747 8.0488 C 24.06 8.3416 23.8009 8.3819 23.5376 8.3745 C 23.0936 8.3625 22.6491 8.3667 22.2052 8.3719 C 20.2934 8.395 20.3018 8.3955 20.3913 10.183 C 20.4138 10.6316 20.5295 10.8167 20.9797 11.1106 C 21.7231 11.5958 22.435 11.5414 23.1962 11.5895 C 23.5847 11.6141 24.1438 11.3877 24.15 12.1191 C 24.1636 12.4898 23.9852 12.6681 23.614 12.6546 C 22.7219 12.6546 21.8278 12.6969 20.9389 12.6472 C 17.2942 12.4428 15.0212 14.44 13.2952 17.3387 C 12.9146 17.9781 12.4131 18.5616 12.3628 19.3532 C 13.335 19.544 13.5255 18.5862 14.0475 18.1538 C 15.3149 17.1044 16.2629 15.6886 17.8077 14.9441 C 18.0722 14.817 18.3308 14.7339 18.5334 14.8343 C 18.9208 15.0262 18.8674 15.4816 18.7716 15.7775 C 18.3072 17.2101 17.5147 18.5574 17.7172 20.15 C 17.378 20.0888 17.2005 20.2959 17.1911 20.5745 C 17.1629 21.376 17.2147 22.1813 17.1733 22.9817 C 17.1147 24.1215 16.5723 24.4519 15.2159 24.4488 C 14.0375 24.4457 14.6187 23.607 14.5123 23.115 C 14.3851 22.5273 14.7322 21.4571 14.317 21.4059 C 13.4476 21.2987 13.5847 22.5352 13.0114 22.9963 C 12.9099 23.0784 12.8774 23.3195 12.901 23.4731 C 13.0408 24.3698 12.5628 24.5257 11.8189 24.4399 C 11.4666 24.3996 11.1053 24.4331 10.7484 24.4331 C 10.7484 23.9971 10.8049 23.5511 10.7326 23.127 C 10.6583 22.6894 11.0986 21.9925 10.406 21.8879 C 10.1693 21.8523 9.7348 22.473 9.5982 23.0669 C 9.503 23.4815 9.0627 23.882 9.1402 24.4331 C 8.7051 24.4566 8.425 24.8373 8.9155 24.9136 C 10.0385 25.0877 11.2069 24.9685 12.3566 24.9685 C 12.3607 25.6885 12.911 25.4955 13.2973 25.4971 C 16.2001 25.5096 19.103 25.5039 22.0058 25.5039 C 23.2564 25.5039 24.5076 25.5039 25.7582 25.5039 C 25.795 25.9927 25.4693 26.0393 25.1044 26.0393 C 24.0716 26.0393 23.0386 26.0393 22.0058 26.0393 C 18.7093 26.0393 15.4133 26.0304 12.1168 26.0503 C 11.6975 26.0524 11.2263 25.851 10.8515 26.2076 C 10.4646 26.5762 9.7354 27.0259 9.7898 27.3249 C 9.905 27.9576 10.6499 27.6282 11.1127 27.6303 C 16.2802 27.6544 21.4519 27.7746 26.6126 27.5906 C 29.1752 27.499 31.611 28.3325 34.1427 28.1735 C 34.55 28.1479 34.7824 28.3528 35.0395 28.6048 C 35.3038 28.8647 35.9844 28.5285 35.9488 29.2558 C 35.9132 29.9888 35.3698 29.7483 34.9819 29.7807 C 34.628 29.8105 34.2689 29.8053 33.9139 29.7828 C 33.2596 29.7415 33.203 30.154 33.268 30.6283 C 33.3863 31.4915 32.802 31.3827 32.268 31.3979 C 31.5838 31.4178 31.6477 30.9545 31.6545 30.5138 C 31.6571 30.3355 31.6535 30.1577 31.6555 29.98 C 31.6587 29.7169 31.6869 29.3405 31.4106 29.3117 C 31.1661 29.2861 31.1729 29.66 31.1022 29.8984 C 30.9541 30.4024 31.6252 31.2065 30.5829 31.3932 C 30.2023 31.3174 29.6201 31.6447 29.5269 30.9817 C 29.4553 30.473 29.5395 29.9893 29.0637 29.5674 C 28.6721 29.2197 28.5616 29.4367 28.2852 29.65 C 27.8643 29.9752 27.8764 30.3862 27.9041 30.8238 C 27.9345 31.3006 27.6481 31.4282 27.2565 31.3859 C 26.9775 31.3555 26.8953 31.1657 26.811 30.873 C 26.3263 29.192 26.2184 29.1601 24.7966 29.2364 C 24.1564 29.271 24.1165 29.6082 24.1474 30.0855 C 24.17 30.4327 24.2045 30.8599 23.7072 30.8405 C 23.2685 30.8233 22.8565 31.0272 22.4827 30.3067 C 21.7655 28.9254 20.685 28.7392 20.2091 29.8126 C 19.6071 31.171 18.6616 30.8081 17.7172 30.8578 C 17.6481 30.5316 17.9004 29.9365 17.534 29.9104 C 15.7541 29.7818 13.8736 29.3426 12.2529 30.358 C 11.1494 31.0491 10.3987 30.966 9.6234 30.0087 C 9.2344 29.5288 8.8234 29.1214 8.0822 29.2307 C 7.6015 29.3018 7.383 29.6307 7.5591 29.8963 C 8.0706 30.6664 8.5643 31.4606 9.7516 31.4156 C 11.8676 31.3357 13.9894 31.3932 16.109 31.3932 C 16.1137 32.1163 16.6671 31.9202 17.0529 31.9218 C 20.6698 31.9333 24.2862 31.9285 27.9025 31.9285 C 27.9025 32.2856 27.9025 32.6423 27.9025 32.9993 C 26.2289 32.5905 24.7348 33.7951 23.0779 33.5347 C 22.7068 33.5212 22.5283 33.6994 22.5418 34.0701 C 21.9953 33.999 21.5152 34.0947 21.2017 34.6055 C 20.8881 35.1163 20.408 35.212 19.8615 35.1409 C 19.3254 35.1409 18.7894 35.1409 18.2533 35.1409 C 17.2309 34.5067 16.3294 34.6369 16.1263 35.4938 C 16.0268 35.9147 16.1383 36.3811 16.1033 36.8224 C 16.0101 37.9961 15.6227 38.3532 14.4998 38.3532 C 13.3832 38.3532 12.9471 37.9532 12.8984 36.8208 C 12.8675 36.1107 12.9152 35.3976 12.8864 34.6876 C 12.8586 34 12.4665 33.8458 11.8613 34.3226 C 11.6121 34.5187 11.2195 34.6913 11.2844 35.1409 C 10.9514 35.0802 10.7713 35.2836 10.7588 35.5555 C 10.7274 36.2587 10.7169 36.9661 10.7562 37.6688 C 10.8065 38.5723 10.1667 38.3522 9.6888 38.3439 C 9.2233 38.336 8.5716 38.5985 8.5978 37.694 C 8.6255 36.7256 8.5627 35.7537 8.6161 34.7875 C 8.6648 33.9049 8.0706 34.0278 7.5791 34.0837 C 6.9087 34.1606 6.4901 34.5773 6.4661 35.2747 C 6.4388 36.0663 6.4231 36.8621 6.4695 37.6521 C 6.5218 38.5456 5.8931 38.405 5.4204 38.3297 C 5.0346 38.2675 4.6825 37.9961 4.3156 37.8178 C 4.3156 36.8375 4.2663 35.8546 4.327 34.8779 C 4.4171 33.4333 4.4137 32.179 2.6707 31.5448 C 1.9545 31.2844 1.6985 30.5415 2.9735 30.2612 C 3.5177 30.1415 2.9099 29.7222 2.7316 29.5721 C 2.2364 29.1549 2.1448 28.8981 2.7105 28.3967 C 3.2695 27.9011 3.7504 27.5879 4.5532 27.6114 C 5.4914 27.6381 5.6814 27.2288 5.0924 26.583 C 4.5841 26.0262 4.0833 25.6822 5.0189 25.0323 C 5.835 24.4655 6.1499 23.7356 6.5148 22.5049 C 7.8906 17.8652 11.4629 14.349 15.4934 13.2082 C 15.885 13.0974 16.0441 13.0095 16.1336 12.5897 C 16.2431 12.0784 16.6938 11.8316 17.1676 11.5555 C 18.4957 10.7822 18.7255 9.8024 17.6963 8.6872 C 16.978 7.9092 17.5733 7.4617 17.9659 7.39 C 18.6449 7.2661 19.0945 6.5117 19.8615 6.7652 Z" fill="#181e2d"/>
				</g>
				<path d="M 27.9025 31.9285 C 24.2862 31.9285 20.6698 31.9333 17.0529 31.9218 C 16.6671 31.9202 16.1137 32.1163 16.109 31.3932 C 16.6367 31.1893 17.466 31.8893 17.7172 30.8578 C 18.6616 30.8081 19.6071 31.171 20.2091 29.8126 C 20.685 28.7392 21.7655 28.9254 22.4827 30.3067 C 22.8565 31.0272 23.2685 30.8233 23.7072 30.8405 C 24.2045 30.8599 24.17 30.4327 24.1474 30.0855 C 24.1165 29.6082 24.1564 29.271 24.7966 29.2364 C 26.2184 29.1601 26.3263 29.192 26.811 30.873 C 26.8953 31.1657 26.9775 31.3555 27.2565 31.3859 C 27.6481 31.4282 27.9345 31.3006 27.9041 30.8238 C 27.8764 30.3862 27.8643 29.9752 28.2852 29.65 C 28.5616 29.4367 28.6721 29.2197 29.0637 29.5674 C 29.5395 29.9893 29.4553 30.473 29.5269 30.9817 C 29.6201 31.6447 30.2023 31.3174 30.5829 31.3932 C 30.5829 31.5715 30.5829 31.7503 30.5829 31.9285 C 29.6892 31.9285 28.7962 31.9285 27.9025 31.9285 Z" fill="none"/>
				<path d="M 28.4386 14.2607 C 30.5017 14.7261 31.988 16.1335 33.1329 17.7015 C 34.6013 19.7124 34.9149 22.2952 35.8205 24.5957 C 35.9729 24.9821 35.4908 25.1154 35.2856 25.3366 C 35.0054 25.6383 34.6898 25.5588 34.3767 25.2895 C 33.9475 24.9194 33.7343 24.5252 33.7857 23.9187 C 33.9857 21.5387 32.5769 19.7986 31.365 17.9718 C 30.4672 16.6187 29.3249 15.5626 27.9025 14.7961 C 27.8889 14.4254 28.0674 14.2471 28.4386 14.2607 Z" fill="#2b2b2b"/>
				<path d="M 10.7484 24.4331 C 11.1053 24.4331 11.4666 24.3996 11.8189 24.4399 C 12.5628 24.5257 13.0408 24.3698 12.901 23.4731 C 12.8774 23.3195 12.9099 23.0784 13.0114 22.9963 C 13.5847 22.5352 13.4476 21.2987 14.317 21.4059 C 14.7322 21.4571 14.3851 22.5273 14.5123 23.115 C 14.6187 23.607 14.0375 24.4457 15.2159 24.4488 C 16.5723 24.4519 17.1147 24.1215 17.1733 22.9817 C 17.2147 22.1813 17.1629 21.376 17.1911 20.5745 C 17.2005 20.2959 17.378 20.0888 17.7172 20.15 C 17.9214 20.677 17.2204 21.5052 18.2533 21.7561 C 18.2533 22.3731 18.1753 23.0032 18.2769 23.6034 C 18.3659 24.1314 19.5013 24.6041 20.0154 24.4342 C 20.6248 24.2323 20.3698 23.7236 20.3882 23.3357 C 20.4211 22.6319 20.3976 21.9261 20.3976 21.2208 C 21.4352 21.536 20.7127 22.393 20.9352 22.9587 C 21.1268 23.4455 20.4332 24.2533 21.4697 24.4331 C 21.4697 24.6114 21.4697 24.7902 21.4697 24.9685 C 18.4318 24.9685 15.3945 24.9685 12.3566 24.9685 C 11.2069 24.9685 10.0385 25.0877 8.9155 24.9136 C 8.425 24.8373 8.7051 24.4566 9.1402 24.4331 C 9.6762 24.4331 10.2123 24.4331 10.7484 24.4331 Z" fill="none"/>
				<path d="M 4.3156 37.8178 C 4.6825 37.9961 5.0346 38.2675 5.4204 38.3297 C 5.8931 38.405 6.5218 38.5456 6.4695 37.6521 C 6.4231 36.8621 6.4388 36.0663 6.4661 35.2747 C 6.4901 34.5773 6.9087 34.1606 7.5791 34.0837 C 8.0706 34.0278 8.6648 33.9049 8.6161 34.7875 C 8.5627 35.7537 8.6255 36.7256 8.5978 37.694 C 8.5716 38.5985 9.2233 38.336 9.6888 38.3439 C 10.1667 38.3522 10.8065 38.5723 10.7562 37.6688 C 10.7169 36.9661 10.7274 36.2587 10.7588 35.5555 C 10.7713 35.2836 10.9514 35.0802 11.2844 35.1409 C 11.2844 35.5827 11.2829 36.024 11.2849 36.4658 C 11.2907 37.9664 11.2912 37.9664 12.3566 38.8886 C 8.9616 38.8886 5.5665 38.8886 2.1712 38.8886 C 2.259 38.0066 2.9458 38.4568 3.3768 38.36 C 3.7551 38.2754 4.311 38.5378 4.3156 37.8178 Z" fill="none"/>
				<path d="M 22.0058 26.0393 C 23.0386 26.0393 24.0716 26.0393 25.1044 26.0393 C 25.4693 26.0393 25.795 25.9927 25.7582 25.5039 C 26.6519 25.5039 27.545 25.5039 28.4386 25.5039 C 30.2656 25.3654 31.9675 26.4167 33.8307 26.068 C 34.0867 26.0199 34.8055 25.6879 34.6976 26.4262 C 34.6541 26.7232 34.2286 27.2052 33.6914 27.1048 C 32.7774 26.9333 31.8146 27.4562 30.9001 26.709 C 30.5201 26.398 29.7165 26.5815 29.1051 26.5789 C 26.9686 26.5684 24.8317 26.5757 22.6952 26.5736 C 22.3314 26.5736 21.9644 26.5658 22.0058 26.0393 Z" fill="#2d2d2c"/>
				<path d="M 22.0058 16.4023 C 22.6533 17.5687 22.6597 18.9182 23.0779 20.15 C 23.0779 20.9447 22.9873 21.7535 23.1036 22.531 C 23.2182 23.297 22.8245 23.8297 22.5418 24.4331 C 22.3633 24.4331 22.1843 24.4331 22.0058 24.4331 C 21.8016 23.9061 22.5026 23.0779 21.4697 22.8269 C 21.4697 21.0425 21.4697 19.2575 21.4697 17.473 C 21.5503 17.0673 21.2037 16.4478 22.0058 16.4023 Z" fill="#40403f"/>
				<path d="M 24.6861 37.0629 C 24.5835 37.4236 24.9385 38.1007 24.4993 38.2121 C 23.7752 38.3961 22.9727 38.2874 22.2047 38.2644 C 22.134 38.2623 22.0199 37.9888 22.0147 37.8383 C 21.9932 37.2245 21.9765 36.6075 22.0126 35.9947 C 22.067 35.0724 22.6523 34.4957 23.459 34.6186 C 24.1857 34.7294 24.7144 35.1116 24.6877 35.9607 C 24.6767 36.3115 24.6861 36.6634 24.6861 37.0629 Z" fill="#403f3e"/>
				<path d="M 29.5108 36.643 C 29.5108 36.8177 29.5432 37.0001 29.5044 37.1653 C 29.4035 37.593 29.8453 38.2617 28.9695 38.3574 C 28.1235 38.4494 27.4895 37.97 27.3644 37.1272 C 27.2393 36.2854 27.5151 35.6334 28.1899 35.1048 C 28.5245 34.8423 28.7904 34.4183 29.2746 34.6562 C 29.6584 34.845 29.4888 35.2685 29.5066 35.5963 C 29.5254 35.9445 29.5108 36.2943 29.5108 36.643 Z" fill="#333331"/>
				<path d="M 20.3976 21.2208 C 20.3976 21.9261 20.4211 22.6319 20.3882 23.3357 C 20.3698 23.7236 20.6248 24.2323 20.0154 24.4342 C 19.5013 24.6041 18.3659 24.1314 18.2769 23.6034 C 18.1753 23.0032 18.2533 22.3731 18.2533 21.7561 C 18.6244 21.7697 18.803 21.5915 18.7894 21.2208 C 19.3254 21.2208 19.8615 21.2208 20.3976 21.2208 Z" fill="#3c3c3b"/>
				<path d="M 33.2632 36.5019 C 33.2632 36.9416 33.248 37.3823 33.2674 37.8215 C 33.2904 38.3412 32.9418 38.3648 32.5816 38.3485 C 32.1848 38.3307 31.6513 38.5132 31.6545 37.8016 C 31.6576 37.0979 31.6786 36.3926 31.6466 35.6904 C 31.6262 35.2476 31.9806 35.096 32.2162 34.8743 C 32.3795 34.72 32.6669 34.6113 32.8889 34.6259 C 33.1543 34.6437 33.2894 34.8721 33.27 35.1822 C 33.2428 35.6203 33.2632 36.0616 33.2632 36.5019 Z" fill="#1f1e1c"/>
				<path d="M 12.3566 24.9685 C 15.3945 24.9685 18.4318 24.9685 21.4697 24.9685 C 21.6482 24.9685 21.8272 24.9685 22.0058 24.9685 C 22.0058 25.1468 22.0058 25.3256 22.0058 25.5039 C 19.103 25.5039 16.2001 25.5096 13.2973 25.4971 C 12.911 25.4955 12.3607 25.6885 12.3566 24.9685 Z" fill="#2d2d2c"/>
				<path d="M 24.15 21.2208 C 24.8688 21.0388 25.4908 21.4273 25.641 21.9711 C 25.8373 22.6827 25.841 23.5516 25.6033 24.2412 C 25.441 24.7128 24.6505 24.3437 24.15 24.4331 C 24.15 23.3623 24.15 22.2915 24.15 21.2208 Z" fill="#30302e"/>
				<path d="M 28.4386 14.2607 C 28.0674 14.2471 27.8889 14.4254 27.9025 14.7961 C 26.7215 14.0008 25.297 13.7912 24.0317 13.1962 C 23.7794 13.0775 23.5533 12.9907 23.614 12.6546 C 23.9852 12.6681 24.1636 12.4898 24.15 12.1191 C 25.3311 12.9144 26.7555 13.124 28.0208 13.7191 C 28.2732 13.8377 28.4993 13.9245 28.4386 14.2607 Z" fill="#656565"/>
				<path d="M 24.15 21.2208 C 24.15 22.2915 24.15 23.3623 24.15 24.4331 C 23.614 24.4331 23.0779 24.4331 22.5418 24.4331 C 22.8245 23.8297 23.2182 23.297 23.1036 22.531 C 22.9873 21.7535 23.0779 20.9447 23.0779 20.15 C 23.4046 20.0893 23.5721 20.2885 23.604 20.5562 C 23.6465 20.9154 23.6469 21.2595 24.15 21.2208 Z" fill="none"/>
				<path d="M 27.9025 31.9285 C 28.7962 31.9285 29.6892 31.9285 30.5829 31.9285 C 31.0111 31.9275 31.4629 31.8297 31.7576 32.2904 C 31.8503 32.4352 32.1021 32.5392 32.1057 32.6674 C 32.1152 32.9669 31.8623 33.004 31.6011 33.0025 C 30.3683 32.9952 29.1354 32.9993 27.9025 32.9993 C 27.9025 32.6423 27.9025 32.2856 27.9025 31.9285 Z" fill="#60605f"/>
				<path d="M 22.0058 25.5039 C 22.0058 25.3256 22.0058 25.1468 22.0058 24.9685 C 23.7491 24.9685 25.4923 24.969 27.2356 24.9685 C 27.6 24.968 27.9413 24.9356 27.9025 24.4331 C 28.2601 24.4331 28.6171 24.4331 28.9747 24.4331 C 28.7962 24.7902 28.6171 25.1468 28.4386 25.5039 C 27.545 25.5039 26.6519 25.5039 25.7582 25.5039 C 24.5076 25.5039 23.2564 25.5039 22.0058 25.5039 Z" fill="none"/>
				<path d="M 18.2533 35.1409 C 18.7894 35.1409 19.3254 35.1409 19.8615 35.1409 C 20.0442 36.035 18.636 35.3202 18.7752 36.2284 C 18.8538 36.7434 18.7742 37.2799 18.7936 37.8058 C 18.8124 38.3036 18.4973 38.3856 18.1272 38.3433 C 17.8549 38.3124 17.6958 38.1451 17.7099 37.8147 C 17.7481 36.8919 17.5445 35.9262 18.2533 35.1409 Z" fill="#222021"/>
				<path d="M 35.4075 37.8178 C 34.9096 37.8555 34.8714 37.5214 34.8714 37.1569 C 34.8714 35.7709 34.8714 34.3854 34.8714 32.9993 C 35.2159 32.9993 35.5614 32.9837 35.9048 33.004 C 36.2205 33.0229 36.7089 33.1097 36.2168 33.4918 C 35.4263 34.1056 35.3379 34.867 35.3981 35.7537 C 35.4447 36.4386 35.4075 37.1293 35.4075 37.8178 Z" fill="#090909"/>
				<path d="M 31.119 23.1103 C 31.119 22.76 31.0875 22.405 31.1362 22.061 C 31.153 21.9449 31.3807 21.765 31.498 21.7755 C 31.7315 21.7964 32.1403 21.9099 32.1513 22.0181 C 32.211 22.6126 32.1167 23.1982 32.702 23.6614 C 32.878 23.8004 32.8015 24.3887 32.3204 24.4174 C 31.9152 24.442 31.3755 24.6287 31.1441 24.1502 C 31.0069 23.8658 31.119 23.4611 31.119 23.1103 Z" fill="#323232"/>
				<path d="M 28.9747 24.4331 C 28.6171 24.4331 28.2601 24.4331 27.9025 24.4331 C 27.9025 23.6358 27.8649 22.8358 27.9245 22.0438 C 27.9439 21.7907 28.302 21.7007 28.5689 21.7666 C 28.7176 21.8032 28.9527 21.9423 28.9569 22.0427 C 28.9888 22.8384 28.9747 23.6358 28.9747 24.4331 Z" fill="#222222"/>
				<path d="M 22.0058 16.4023 C 21.2037 16.4478 21.5503 17.0673 21.4697 17.473 C 20.7861 17.4746 20.9164 16.9565 20.9457 16.5764 C 20.9907 16.007 20.7232 15.3989 21.1284 14.8693 C 21.421 15.3801 21.7131 15.8915 22.0058 16.4023 Z" fill="#6e6d6d"/>
				<path d="M 21.4697 22.8269 C 22.5026 23.0779 21.8016 23.9061 22.0058 24.4331 C 21.8272 24.4331 21.6482 24.4331 21.4697 24.4331 C 21.4697 23.8977 21.4697 23.3623 21.4697 22.8269 Z" fill="none"/>
				<path d="M 18.7894 21.2208 C 18.803 21.5915 18.6244 21.7697 18.2533 21.7561 C 18.2397 21.3854 18.4182 21.2072 18.7894 21.2208 Z" fill="none"/>
				<path d="M 22.5418 34.0701 C 22.5283 33.6994 22.7068 33.5212 23.0779 33.5347 C 23.0916 33.9054 22.913 34.0837 22.5418 34.0701 Z" fill="#403f3e"/>
				<path d="M 10.2123 41.5656 C 10.2123 41.7439 10.2123 41.9227 10.2123 42.101 C 8.2533 42.101 6.2949 42.0994 4.3362 42.103 C 4.076 42.1036 3.8193 42.0811 3.8941 41.7433 C 3.9135 41.656 4.1818 41.574 4.3362 41.5729 C 6.2949 41.5619 8.2533 41.5656 10.2123 41.5656 Z" fill="#9d9aa1"/>
				<path d="M 29.5108 41.5656 C 29.7715 41.5499 30.018 41.5943 29.9306 41.9253 C 29.9065 42.0157 29.6526 42.068 29.4966 42.0947 C 29.327 42.1229 29.149 42.101 28.9747 42.101 C 28.9611 41.7303 29.1396 41.552 29.5108 41.5656 Z" fill="none"/>
				<path d="M 17.7172 30.8578 C 17.466 31.8893 16.6367 31.1893 16.109 31.3932 C 13.9894 31.3932 11.8676 31.3357 9.7516 31.4156 C 8.5643 31.4606 8.0706 30.6664 7.5591 29.8963 C 7.383 29.6307 7.6015 29.3018 8.0822 29.2307 C 8.8234 29.1214 9.2344 29.5288 9.6234 30.0087 C 10.3987 30.966 11.1494 31.0491 12.2529 30.358 C 13.8736 29.3426 15.7541 29.7818 17.534 29.9104 C 17.9004 29.9365 17.6481 30.5316 17.7172 30.8578 Z" fill="none"/>
				<path d="M 10.7484 24.4331 C 10.2123 24.4331 9.6762 24.4331 9.1402 24.4331 C 9.0627 23.882 9.503 23.4815 9.5982 23.0669 C 9.7348 22.473 10.1693 21.8523 10.406 21.8879 C 11.0986 21.9925 10.6583 22.6894 10.7326 23.127 C 10.8049 23.5511 10.7484 23.9971 10.7484 24.4331 Z" fill="none"/>
			</g>
			<g>
				<path d="M 56.9043 32.3877 L 58.2125 32.3877 L 70.8816 32.3877 L 79.1713 32.6376 C 79.1997 32.3806 79.2353 32.1092 79.2637 31.8093 C 79.4414 30.424 79.7614 28.6817 80.2235 26.5896 C 80.3372 26.1183 80.4368 25.6113 80.5363 25.0758 L 79.6263 25.0758 C 79.1571 26.2325 78.7802 26.9966 78.503 27.375 C 78.3252 27.6178 78.1973 27.7963 78.1262 27.9106 C 77.7849 28.4747 77.3157 29.0173 76.7114 29.5458 C 75.716 30.3741 75.0051 30.8739 74.5785 31.0453 C 74.152 31.2166 73.4339 31.3095 72.4386 31.338 L 68.6208 31.4737 L 67.1207 31.4737 C 65.322 31.4594 64.2413 31.4451 63.8787 31.4309 C 63.7294 31.3309 63.6583 31.0524 63.6583 30.6026 L 63.6299 29.2101 L 63.701 22.8979 L 63.6583 15.4931 L 63.6583 14.0793 L 63.6299 9.9377 L 63.6299 8.5953 C 63.6583 7.867 63.6797 7.3814 63.6797 7.1386 C 63.6797 6.1389 63.8574 5.5463 64.22 5.3463 C 64.4333 5.2321 65.2722 5.1464 66.7225 5.0893 C 68.1729 5.0393 68.9905 4.9964 69.1611 4.9679 C 69.2464 4.668 69.3033 4.3824 69.3175 4.1182 C 68.8269 4.0753 67.9809 4.0539 66.7794 4.0539 L 64.9949 4.0967 C 64.8598 4.111 64.3551 4.1182 63.4806 4.1182 C 63.1251 4.0896 62.9047 4.0753 62.8336 4.0753 L 62.2578 4.0967 L 60.2955 4.0539 L 56.9114 4.0539 L 55.5322 4.0539 C 55.518 4.2467 55.5109 4.3966 55.5109 4.5109 C 55.5109 4.6109 55.518 4.7608 55.5322 4.9679 C 57.5299 5.3321 58.6533 5.5391 58.9092 5.5963 C 59.158 5.6534 59.4708 5.7748 59.8476 5.9461 C 59.9472 6.2103 60.0041 6.4103 60.0183 6.5531 C 60.0609 7.31 60.0751 9.2094 60.0609 12.2584 L 60.0609 13.608 L 60.0396 18.6849 L 60.0609 22.5765 L 59.9045 28.3033 C 59.869 29.5029 59.7766 30.2027 59.6344 30.3883 C 59.4211 30.6525 58.9447 30.8096 58.2125 30.8668 C 57.0963 30.9667 55.9516 31.1738 54.7786 31.4737 C 54.6719 31.745 54.6151 32.0521 54.6008 32.3877 L 56.9043 32.3877 L 56.9043 32.3877 Z" fill="#223546"/>
				<path d="M 98.2816 21.0913 C 98.2816 20.1773 97.983 19.1705 97.4 18.0637 C 96.8099 16.9641 95.9212 16.0572 94.734 15.3574 C 93.8524 14.829 92.722 14.5648 91.3427 14.5648 C 90.063 14.5648 88.9468 14.7648 87.9799 15.1503 C 87.3045 15.4217 86.5225 15.9072 85.6338 16.5927 C 85.0082 17.0783 84.475 17.7067 84.0484 18.4636 C 83.4085 19.5918 82.9677 20.6486 82.726 21.634 C 82.4772 22.6265 82.3563 23.4406 82.3563 24.0689 C 82.3563 26.0683 82.7971 27.7749 83.6787 29.1744 C 84.5603 30.574 85.7689 31.588 87.3045 32.2163 C 88.3425 32.6305 89.3947 32.8447 90.4683 32.8447 C 91.6413 32.8447 92.4874 32.7733 92.9992 32.6448 C 94.0657 32.352 95.1179 31.8879 96.1559 31.2523 C 97.1938 30.6168 98.0541 29.8742 98.7366 29.0316 C 98.7508 28.9174 98.765 28.8031 98.765 28.7032 L 98.63 27.8177 L 97.0801 29.1245 C 96.1843 29.7171 95.4947 30.0956 95.0041 30.2527 C 94.5136 30.4169 93.8595 30.5169 93.049 30.5597 C 91.5062 30.5169 90.2194 30.1813 89.1957 29.5386 C 88.1648 28.9031 87.3756 27.9748 86.8211 26.7609 C 86.2665 25.547 85.9964 24.5259 85.9964 23.6833 L 86.0177 22.6765 L 86.0177 22.4694 L 85.9964 22.2624 C 85.9964 22.1124 86.0533 21.8339 86.1741 21.4198 L 88.1648 21.4198 L 89.7786 21.4198 L 98.2816 21.4198 L 98.2816 21.0913 L 98.2816 21.0913 ZM 87.4894 17.5496 C 88.4065 16.1714 89.6222 15.4788 91.1437 15.4788 C 91.8617 15.4788 92.4945 15.6645 93.0348 16.0358 C 93.5751 16.4071 93.9804 16.9284 94.2434 17.6067 C 94.5065 18.2851 94.6415 18.892 94.6415 19.4204 C 94.6415 19.6846 94.5207 19.9774 94.2861 20.2987 C 94.1652 20.4058 93.8453 20.4772 93.3263 20.5058 L 87.3543 20.5058 L 86.4301 20.5058 C 86.4301 19.5846 86.7784 18.5992 87.4894 17.5496 L 87.4894 17.5496 Z" fill="#223546"/>
				<path d="M 104.4953 34.6084 C 102.5189 35.551 101.2107 36.4578 100.5851 37.329 C 99.9594 38.193 99.6466 38.9142 99.6466 39.4926 C 99.6466 40.1567 99.9097 40.8279 100.45 41.5134 C 100.9903 42.1917 101.9003 42.8201 103.18 43.4056 C 104.4598 43.9769 106.2727 44.2696 108.633 44.2696 C 110.7659 44.2696 112.657 43.9483 114.3064 43.3271 C 115.9558 42.6916 117.1858 41.8704 117.9962 40.8636 C 118.8067 39.8425 119.212 38.7428 119.212 37.5575 C 119.212 36.672 118.9774 35.8223 118.5152 34.994 C 118.0531 34.1657 117.3706 33.5373 116.4606 33.116 C 115.5506 32.6805 114.278 32.4448 112.6428 32.3877 C 108.8748 32.2735 106.3153 31.8379 104.9645 31.0953 C 104.4526 30.8096 104.1967 30.5097 104.1967 30.1955 C 104.1967 29.9099 104.4313 29.5957 104.9077 29.253 C 105.8959 28.5818 106.9836 28.2462 108.1709 28.2462 C 108.5975 28.2676 108.8534 28.2747 108.9459 28.2747 C 110.1829 28.2747 111.3986 27.9891 112.6072 27.4036 C 113.8159 26.8252 114.7614 25.9826 115.451 24.883 C 116.1336 23.7833 116.4819 22.7122 116.4819 21.684 C 116.4819 20.6557 116.098 19.5132 115.3302 18.2636 C 115.5293 18.2351 115.6643 18.2208 115.7354 18.2208 C 115.9345 18.2208 116.5033 18.3779 117.4275 18.6778 C 118.3517 18.9848 119.0129 19.1348 119.411 19.1348 C 119.6385 19.1348 119.8163 19.0848 119.9371 18.9706 C 120.058 18.8563 120.122 18.6849 120.122 18.4564 C 120.122 17.7995 120.0296 17.3282 119.8589 17.0426 C 119.6385 16.9141 119.3613 16.8498 119.0271 16.8498 L 117.3208 16.8498 L 115.5079 16.8498 C 115.2093 16.8498 114.9463 16.8141 114.7188 16.7356 C 114.6121 16.6927 114.2638 16.4856 113.6808 16.1072 C 112.7565 15.5145 112.0598 15.1432 111.5906 14.9933 C 110.7659 14.7076 109.863 14.5648 108.8819 14.5648 C 106.7064 14.5648 104.929 15.2432 103.5426 16.5999 C 102.1563 17.9566 101.4667 19.6132 101.4667 21.5769 C 101.4667 23.969 102.5971 25.8398 104.865 27.1822 C 105.2916 27.4321 105.6044 27.6249 105.8035 27.7535 C 105.1636 28.0462 104.346 28.3461 103.3507 28.6532 C 102.3553 28.9602 101.687 29.2815 101.3529 29.61 C 101.1254 29.8457 101.0117 30.1527 101.0117 30.5312 C 101.0117 30.9596 101.1681 31.3452 101.4951 31.6951 C 101.8221 32.045 102.5971 32.5734 103.827 33.2874 C 104.8792 33.6801 105.4977 33.9229 105.6968 34.0086 C 105.4764 34.1229 105.0783 34.3228 104.4953 34.6084 L 104.4953 34.6084 ZM 105.6613 16.9498 C 106.3296 15.9715 107.3178 15.4788 108.6259 15.4788 C 109.7919 15.4788 110.7801 16.0001 111.6048 17.0283 C 112.4295 18.0566 112.8419 19.5632 112.8419 21.5412 C 112.8419 23.5048 112.4437 24.9686 111.6546 25.9255 C 110.8654 26.8823 109.8772 27.3607 108.6828 27.3607 C 108.0216 27.3607 107.3675 27.1537 106.7277 26.7252 C 106.0807 26.2968 105.576 25.647 105.2063 24.7758 C 104.8366 23.9047 104.6517 22.8193 104.6517 21.5197 C 104.6517 19.4561 104.9859 17.9352 105.6613 16.9498 L 105.6613 16.9498 ZM 102.8317 38.9428 C 102.8317 37.7931 103.2654 36.8077 104.1398 35.9866 C 105.2702 34.9297 106.5571 34.4013 107.9932 34.4013 C 108.5193 34.4013 109.9483 34.487 112.2873 34.6727 C 113.1049 34.7298 113.7377 34.8226 114.1856 34.9583 C 114.8112 35.1297 115.3089 35.3725 115.6928 35.6795 C 116.0767 35.9723 116.3753 36.3579 116.6028 36.8291 C 116.8232 37.2861 116.9369 37.7574 116.9369 38.2287 C 116.9369 38.9927 116.6241 39.8068 115.9985 40.6708 C 115.3728 41.5276 114.3846 42.1917 113.0338 42.663 C 111.683 43.12 110.3251 43.3556 108.9672 43.3556 C 107.0618 43.3556 105.4835 42.8415 104.2323 41.8133 C 103.2938 40.9564 102.8317 39.9996 102.8317 38.9428 L 102.8317 38.9428 Z" fill="#223546"/>
				<path d="M 123.3568 5.8033 C 123.691 6.1604 124.1104 6.3389 124.6081 6.3389 C 125.1057 6.3389 125.5465 6.1461 125.9233 5.7533 C 126.3001 5.3606 126.4921 4.9465 126.4921 4.5037 C 126.4921 4.061 126.3001 3.6469 125.9233 3.2613 C 125.5465 2.8757 125.1057 2.6829 124.6081 2.6829 C 124.1246 2.6829 123.7052 2.8543 123.3639 3.197 C 123.0227 3.5398 122.852 3.9468 122.852 4.4181 C 122.852 4.9893 123.0155 5.4463 123.3568 5.8033 L 123.3568 5.8033 ZM 122.5108 17.5282 C 122.8805 17.7567 123.1151 17.9495 123.2004 18.1208 C 123.2999 18.3707 123.3497 18.992 123.3497 19.9845 C 123.3497 24.9544 123.3355 27.9891 123.307 29.0959 C 123.307 29.76 123.1791 30.2455 122.9231 30.5454 C 122.7667 30.7454 122.4468 30.8882 121.9633 30.9739 C 120.4775 31.2809 119.7025 31.4451 119.6456 31.4737 C 119.3542 31.6094 119.212 31.7879 119.212 32.0164 C 119.212 32.1021 119.2475 32.202 119.3328 32.3163 C 119.5035 32.3663 119.6314 32.3877 119.7167 32.3877 L 121.1102 32.3877 L 124.9636 32.3877 L 127.6083 32.3877 L 130.0113 32.3877 C 130.0895 32.1878 130.1322 32.0164 130.1322 31.8807 C 130.1322 31.7665 130.1037 31.6308 130.0611 31.4737 C 129.7411 31.3595 129.2648 31.2238 128.6249 31.0596 C 127.6012 30.8025 126.9827 30.574 126.7765 30.3598 C 126.5703 30.1527 126.4779 29.7814 126.4921 29.2387 L 126.5561 22.6265 L 126.5348 16.3785 L 126.5348 15.2289 C 126.5632 14.6576 126.5774 14.3292 126.5774 14.2578 C 126.5774 13.9436 126.549 13.4366 126.4921 12.7368 L 126.1793 12.7154 C 126.0513 12.7154 125.8878 12.7297 125.6816 12.7583 C 125.2124 13.4009 124.6294 13.9864 123.9469 14.5006 C 123.2573 15.0147 122.6032 15.4003 121.9776 15.6502 C 121.8851 15.7002 121.2737 15.8715 120.1504 16.1643 L 120.122 16.8498 C 121.3377 17.0783 122.134 17.3068 122.5108 17.5282 L 122.5108 17.5282 Z" fill="#223546"/>
				<path d="M 152.8897 4.2181 C 151.4393 3.804 149.8966 3.5969 148.2614 3.5969 C 146.0148 3.5969 144.2729 3.7326 143.0501 3.9896 C 141.3012 4.3895 139.7158 5.0607 138.2939 6.0033 C 136.8649 6.953 135.6278 8.1383 134.5756 9.5664 C 133.5234 10.9945 132.7485 12.4084 132.2508 13.7936 C 131.746 15.186 131.4972 16.8141 131.4972 18.6778 C 131.4972 20.6486 131.81 22.4694 132.4499 24.1403 C 133.0826 25.8112 133.9144 27.1894 134.9524 28.2819 C 135.9904 29.3744 137.1919 30.2527 138.5569 30.9096 C 139.9219 31.5737 141.1803 32.0592 142.3463 32.3734 C 143.5051 32.6876 145.2541 32.8447 147.586 32.8447 C 150.4867 32.8447 152.7972 32.5662 154.5249 32.0235 C 154.8803 31.9164 155.1718 31.8379 155.4135 31.7808 C 155.7264 30.8882 156.2311 29.2244 156.9279 26.7895 C 156.9421 26.6895 156.9634 26.4682 156.9776 26.1183 C 156.7999 26.0326 156.6648 25.9897 156.5795 25.9897 L 156.2525 26.0754 C 155.769 27.0751 155.1931 27.9463 154.5106 28.6889 C 153.8281 29.4386 153.1243 30.017 152.4133 30.4312 C 151.7024 30.8453 150.7995 31.1952 149.7046 31.4951 C 149.2638 31.6308 148.4462 31.7665 147.2518 31.9093 L 146.1925 31.9307 C 144.4649 31.9307 142.7515 31.4951 141.0595 30.624 C 139.3674 29.7528 138.0308 28.2962 137.0568 26.2468 C 136.0757 24.2046 135.5923 21.6126 135.5923 18.4707 C 135.5923 16.8355 135.7984 15.2289 136.2108 13.6508 C 136.6231 12.0728 137.1777 10.7303 137.8815 9.6235 C 138.5854 8.5167 139.4456 7.5671 140.4694 6.7673 C 141.486 5.9676 142.6733 5.3392 144.0241 4.8822 C 144.7848 4.6394 145.7233 4.5109 146.8324 4.5109 C 148.9226 4.5109 150.6857 4.9822 152.1076 5.9247 C 153.5295 6.8673 154.5604 8.2097 155.1931 9.952 C 155.3567 9.9806 155.4846 9.9948 155.5771 9.9948 C 155.6766 9.9948 155.833 9.9734 156.0463 9.9306 C 156.0605 9.5307 156.0676 9.2094 156.0676 8.9666 C 156.0676 7.7598 155.9752 6.5817 155.7975 5.432 C 155.3069 5.0393 154.34 4.6323 152.8897 4.2181 L 152.8897 4.2181 Z" fill="#223546"/>
				<path d="M 162.9141 32.3877 L 164.2364 32.3877 L 166.675 32.3877 L 168.1395 32.3591 L 169.142 32.3877 L 171.8009 32.3877 C 171.9289 32.1949 171.9929 32.0378 171.9929 31.9164 C 171.9929 31.7236 171.9218 31.5737 171.7796 31.4737 C 171.5094 31.3166 171.0331 31.2381 170.3506 31.2238 C 170.2368 31.2095 170.0662 31.1952 169.8458 31.1809 C 169.5259 31.1238 168.5092 31.031 166.7959 30.9025 C 166.5399 30.7668 166.3764 30.6454 166.3195 30.5454 C 166.2342 30.4026 166.1702 30.0956 166.1276 29.6172 L 166.0778 25.4328 L 165.964 21.9482 C 165.964 21.3341 166.1844 20.6557 166.6323 19.9131 C 167.2011 18.9277 167.6917 18.2779 168.0898 17.9566 C 168.2462 17.8281 168.5235 17.7638 168.9287 17.7638 C 169.142 17.7638 169.5828 17.9209 170.2511 18.2208 C 170.9194 18.5278 171.3744 18.6778 171.6019 18.6778 C 172.0995 18.6778 172.5403 18.4921 172.9314 18.1065 C 173.2157 17.8209 173.3579 17.4139 173.3579 16.8926 C 173.3579 16.2429 173.1589 15.693 172.7749 15.2432 C 172.3839 14.7933 171.8862 14.5648 171.2748 14.5648 C 170.8056 14.5648 170.0804 14.8719 169.1135 15.486 C 168.9287 15.6145 168.7439 15.8001 168.5519 16.0286 L 168.0756 16.5285 C 167.2793 17.3782 166.6252 18.3065 166.0991 19.3062 C 166.0707 19.1062 166.0565 18.9563 166.0565 18.8563 L 166.0778 18.4564 C 166.0778 15.7573 166.028 14.0079 165.9427 13.2153 L 165.1678 13.1938 C 164.6132 14.1792 163.9378 14.979 163.1487 15.5788 C 162.5799 16.0001 161.4637 16.4999 159.8001 17.0783 L 159.7077 17.7638 C 159.9921 17.8852 160.3831 17.9852 160.8665 18.0566 C 161.6983 18.178 162.2173 18.3422 162.4164 18.5493 C 162.6155 18.7635 162.7505 19.2562 162.8074 20.0416 C 162.8643 20.8271 162.8927 23.7547 162.8927 28.8317 C 162.8927 29.7885 162.843 30.3669 162.7505 30.5526 C 162.6794 30.6954 162.5728 30.7954 162.4164 30.8668 L 160.4257 31.2024 L 159.0109 31.4737 C 158.8688 31.7308 158.7977 31.9164 158.7977 32.0378 L 158.8901 32.3877 L 162.9141 32.3877 L 162.9141 32.3877 Z" fill="#223546"/>
				<path d="M 190.9397 29.3458 L 190.6767 29.7028 C 190.2785 30.2741 189.7951 30.5597 189.2405 30.5597 C 188.8566 30.5597 188.5296 30.4169 188.2523 30.1313 C 187.9679 29.8457 187.8257 29.4601 187.8257 28.9888 C 187.8257 28.7889 187.8329 28.4747 187.8471 28.0605 C 187.8613 27.832 187.8755 27.5535 187.8755 27.2179 L 187.8471 24.7187 L 187.9182 21.2912 C 187.9182 19.349 187.8826 18.2208 187.8257 17.9066 C 187.7191 17.2497 187.4276 16.6356 186.9513 16.0786 C 186.4678 15.5217 185.9133 15.1289 185.2877 14.9004 C 184.662 14.6791 183.7022 14.5648 182.4225 14.5648 C 181.477 14.5648 180.375 14.9076 179.1095 15.5788 C 177.844 16.25 176.7918 17.264 175.9671 18.6207 C 175.1353 19.9774 174.7229 20.8485 174.7229 21.2341 C 174.7229 21.3698 174.8083 21.4912 174.9789 21.5911 C 175.2846 21.7839 175.6259 21.8768 176.0027 21.8768 C 176.4434 21.8768 177.0335 21.6697 177.7729 21.2484 C 178.0573 20.8057 178.2564 20.3915 178.363 19.9988 C 178.6118 18.5992 178.9815 17.6495 179.4792 17.1426 C 180.2755 16.3428 181.1286 15.9358 182.0457 15.9358 C 182.9202 15.9358 183.5956 16.2714 184.0648 16.9355 C 184.5341 17.5996 184.7758 18.8706 184.7758 20.7414 C 184.7758 21.3198 184.7616 21.8482 184.7331 22.3338 C 184.399 22.5051 183.489 22.905 182.0102 23.5262 C 179.9058 24.4045 178.235 25.5327 177.0122 26.918 C 175.7894 28.3033 175.1779 29.4958 175.1779 30.4883 C 175.1779 31.1809 175.3912 31.745 175.832 32.1878 C 176.2657 32.6233 176.8558 32.8447 177.6094 32.8447 C 178.6403 32.8447 179.529 32.7447 180.2684 32.5448 C 180.7234 32.402 181.3845 32.0735 182.259 31.5451 L 184.7331 29.7385 C 184.8682 30.7525 185.1028 31.4594 185.4441 31.845 C 185.9915 32.5091 186.8162 32.8447 187.9182 32.8447 C 188.558 32.8447 189.0557 32.7304 189.4254 32.5019 C 190.0084 32.1521 190.5345 31.5951 191.0108 30.8311 C 191.3734 30.2598 191.5582 29.8528 191.5582 29.6243 C 191.5582 29.5386 191.5085 29.3887 191.4232 29.1887 C 191.1743 29.253 191.0108 29.303 190.9397 29.3458 L 190.9397 29.3458 ZM 182.2092 30.5454 C 181.612 30.8596 181.1073 31.0167 180.6949 31.0167 C 180.1546 31.0167 179.7067 30.8382 179.3512 30.4669 C 178.9958 30.0956 178.818 29.6314 178.818 29.0745 C 178.818 28.4889 179.0313 27.8749 179.465 27.2179 C 180.0551 26.3111 180.8584 25.5113 181.868 24.8115 C 182.8775 24.1118 183.8302 23.5905 184.7331 23.2478 C 184.7758 23.9047 184.8042 24.4188 184.8042 24.8044 C 184.8042 25.547 184.7544 26.8252 184.6549 28.6246 C 183.8018 29.4958 182.9913 30.1313 182.2092 30.5454 L 182.2092 30.5454 Z" fill="#223546"/>
				<path d="M 191.1032 15.386 C 191.1032 15.5145 191.1103 15.693 191.1246 15.9358 C 191.3236 15.9644 191.5938 16.0072 191.9564 16.0572 C 192.6033 16.1572 193.0512 16.2857 193.3072 16.4356 C 193.4565 16.5356 193.6698 16.7927 193.9399 17.2211 L 197.388 24.426 L 201.1561 32.8447 C 201.4404 32.8733 201.6537 32.8875 201.8101 32.8875 C 201.9594 32.8875 202.1869 32.8733 202.4926 32.8447 C 203.2249 31.745 204.7677 28.796 207.128 23.9904 C 207.4693 24.7544 207.8461 25.6756 208.2585 26.7538 C 209.5382 30.0813 210.37 32.1092 210.7468 32.8447 C 211.344 32.9018 211.8132 32.9304 212.1616 32.9304 C 212.2966 32.9304 212.4033 32.8947 212.4886 32.8233 C 212.5668 32.7519 212.6521 32.6019 212.7374 32.3734 C 212.8228 32.1449 212.9578 31.845 213.1356 31.4737 C 213.9745 29.71 214.5575 28.3961 214.8987 27.5392 L 218.5246 18.3493 C 219.2426 17.2997 219.8114 16.657 220.238 16.4214 C 220.6574 16.1857 221.2333 16.0215 221.9727 15.9358 C 222.0153 15.7359 222.0438 15.5574 222.0438 15.386 C 222.0438 15.286 222.0224 15.2075 221.9869 15.1646 C 221.9442 15.1218 221.8802 15.0789 221.7949 15.0432 L 220.6645 15.0432 C 220.0815 15.0789 219.5626 15.0932 219.1075 15.0932 C 218.5246 15.0932 217.9203 15.0861 217.3017 15.0575 C 216.6832 15.0361 216.3419 15.0218 216.2709 15.0218 L 214.4437 15.0432 L 214.1025 15.0432 C 213.9318 15.2075 213.8536 15.3574 213.8536 15.4931 C 213.8536 15.5645 213.8892 15.6645 213.9745 15.7787 C 214.2518 15.8858 214.6854 15.9929 215.2684 16.1072 C 216.2424 16.3071 216.8609 16.5285 217.1169 16.757 C 217.3728 16.9855 217.5008 17.264 217.5008 17.5924 C 217.5008 18.2208 217.2804 18.9777 216.8538 19.8488 C 216.1998 21.2341 215.6737 22.4195 215.2826 23.4191 C 214.1807 26.2754 213.3275 28.2462 212.7161 29.3387 C 212.3322 28.6246 211.7919 27.375 211.0809 25.5756 L 208.6424 19.5489 C 208.3864 18.8063 208.2229 18.3636 208.166 18.2208 C 207.9812 17.721 207.8959 17.3068 207.8959 16.9783 C 207.8959 16.8427 207.9741 16.6856 208.1447 16.4999 C 208.6637 16.2286 209.4173 16.0429 210.4126 15.9358 C 210.9316 15.8858 211.3084 15.8001 211.5359 15.6787 L 211.5786 15.0432 C 211.408 15.029 211.28 15.0218 211.1947 15.0218 L 210.8179 15.0218 C 210.6615 15.0361 210.4766 15.0432 210.2562 15.0432 L 207.4906 15.0004 L 206.6375 15.0218 L 203.8363 15.0218 L 202.5566 15.0004 C 202.3434 15.0004 202.059 15.0504 201.7035 15.1432 C 201.6111 15.3289 201.5684 15.4645 201.5684 15.5645 L 201.5897 15.7359 C 201.7248 15.8715 202.1585 16.0429 202.8837 16.25 C 203.6088 16.4642 204.0283 16.6213 204.1421 16.7213 C 204.2558 16.8284 204.4264 17.1854 204.6397 17.7995 C 204.853 18.4136 205.0236 18.8777 205.1658 19.1848 L 206.6944 22.9264 C 205.7915 25.0115 204.6113 27.2608 203.1609 29.6814 L 200.6797 24.5116 C 199.464 21.991 198.618 20.1702 198.1487 19.042 C 197.7862 18.1994 197.5871 17.6924 197.5444 17.521 C 197.516 17.3853 197.5018 17.2425 197.5018 17.0854 C 197.5018 16.7641 197.6297 16.5142 197.8857 16.3285 C 198.1416 16.1429 198.7957 16.0144 199.8621 15.9358 C 200.0896 15.8144 200.2034 15.6216 200.2034 15.3646 C 200.2034 15.2646 200.1678 15.186 200.111 15.1289 C 200.0541 15.0718 199.9403 15.0432 199.7768 15.0432 L 191.1246 15.0218 C 191.1103 15.186 191.1032 15.3074 191.1032 15.386 L 191.1032 15.386 Z" fill="#223546"/>
				<path d="M 224.3544 5.6748 C 224.9516 5.8962 225.3426 6.1175 225.5274 6.346 C 225.7052 6.5745 225.7976 6.9458 225.7976 7.4599 L 225.7336 10.0377 L 225.7549 15.286 L 225.6838 20.5343 L 225.7123 25.6113 C 225.7123 28.0677 225.6767 29.5529 225.6199 30.0813 C 225.5772 30.4669 225.4848 30.7168 225.3497 30.8239 C 225.2075 30.9382 224.6672 31.0738 223.7287 31.2309 C 222.7903 31.3952 222.2713 31.5094 222.1788 31.5808 C 222.0864 31.6522 222.0438 31.7665 222.0438 31.9164 C 222.0438 32.0592 222.0864 32.1735 222.1788 32.2449 C 222.2997 32.3591 222.4846 32.402 222.7334 32.3877 L 226.601 32.3877 L 229.6083 32.3877 L 232.0255 32.3877 C 232.2104 32.3877 232.3312 32.352 232.4023 32.2663 C 232.4734 32.1878 232.509 32.0521 232.509 31.8522 C 232.509 31.6736 232.445 31.5451 232.3312 31.4737 C 232.1606 31.3737 231.6203 31.2666 230.7103 31.1667 C 229.7931 31.0667 229.2457 30.881 229.068 30.6097 C 228.9329 30.4169 228.8689 29.4886 228.8689 27.832 L 228.8689 25.6327 L 228.8689 3.9039 L 228.8689 2.6829 L 227.71 2.6829 C 226.0962 3.1256 224.8805 3.4541 224.0558 3.6683 C 223.487 3.8111 222.968 3.9396 222.4988 4.0539 L 222.4988 4.9679 C 222.8329 5.1178 223.4514 5.3535 224.3544 5.6748 L 224.3544 5.6748 Z" fill="#223546"/>
				<path d="M 249.7993 21.0913 C 249.7993 20.1773 249.5007 19.1705 248.9177 18.0637 C 248.3276 16.9641 247.4389 16.0572 246.2516 15.3574 C 245.37 14.829 244.2396 14.5648 242.8604 14.5648 C 241.5807 14.5648 240.4645 14.7648 239.4976 15.1503 C 238.8222 15.4217 238.0401 15.9072 237.1515 16.5927 C 236.5258 17.0783 235.9926 17.7067 235.566 18.4636 C 234.9262 19.5918 234.4854 20.6486 234.2437 21.634 C 233.9948 22.6265 233.874 23.4406 233.874 24.0689 C 233.874 26.0683 234.3148 27.7749 235.1964 29.1744 C 236.0779 30.574 237.2865 31.588 238.8222 32.2163 C 239.8602 32.6305 240.9124 32.8447 241.9859 32.8447 C 243.159 32.8447 244.005 32.7733 244.5169 32.6448 C 245.5833 32.352 246.6355 31.8879 247.6735 31.2523 C 248.7115 30.6168 249.5718 29.8742 250.2543 29.0316 C 250.2685 28.9174 250.2827 28.8031 250.2827 28.7032 L 250.1476 27.8177 L 248.5977 29.1245 C 247.702 29.7171 247.0123 30.0956 246.5218 30.2527 C 246.0312 30.4169 245.3772 30.5169 244.5667 30.5597 C 243.0239 30.5169 241.7371 30.1813 240.7133 29.5386 C 239.6824 28.9031 238.8933 27.9748 238.3387 26.7609 C 237.7842 25.547 237.514 24.5259 237.514 23.6833 L 237.5354 22.6765 L 237.5354 22.4694 L 237.514 22.2624 C 237.514 22.1124 237.5709 21.8339 237.6918 21.4198 L 239.6824 21.4198 L 241.2963 21.4198 L 249.7993 21.4198 L 249.7993 21.0913 L 249.7993 21.0913 ZM 239.007 17.5496 C 239.9242 16.1714 241.1399 15.4788 242.6613 15.4788 C 243.3794 15.4788 244.0121 15.6645 244.5524 16.0358 C 245.0928 16.4071 245.498 16.9284 245.7611 17.6067 C 246.0241 18.2851 246.1592 18.892 246.1592 19.4204 C 246.1592 19.6846 246.0383 19.9774 245.8037 20.2987 C 245.6829 20.4058 245.3629 20.4772 244.8439 20.5058 L 238.872 20.5058 L 237.9477 20.5058 C 237.9477 19.5846 238.2961 18.5992 239.007 17.5496 L 239.007 17.5496 Z" fill="#223546"/>
				<path d="M 255.2807 32.3877 L 256.6031 32.3877 L 259.0416 32.3877 L 260.5062 32.3591 L 261.5086 32.3877 L 264.1676 32.3877 C 264.2955 32.1949 264.3595 32.0378 264.3595 31.9164 C 264.3595 31.7236 264.2884 31.5737 264.1462 31.4737 C 263.8761 31.3166 263.3997 31.2381 262.7172 31.2238 C 262.6035 31.2095 262.4328 31.1952 262.2124 31.1809 C 261.8925 31.1238 260.8759 31.031 259.1625 30.9025 C 258.9065 30.7668 258.743 30.6454 258.6861 30.5454 C 258.6008 30.4026 258.5368 30.0956 258.4942 29.6172 L 258.4444 25.4328 L 258.3307 21.9482 C 258.3307 21.3341 258.5511 20.6557 258.999 19.9131 C 259.5677 18.9277 260.0583 18.2779 260.4564 17.9566 C 260.6128 17.8281 260.8901 17.7638 261.2953 17.7638 C 261.5086 17.7638 261.9494 17.9209 262.6177 18.2208 C 263.286 18.5278 263.741 18.6778 263.9685 18.6778 C 264.4662 18.6778 264.907 18.4921 265.298 18.1065 C 265.5823 17.8209 265.7245 17.4139 265.7245 16.8926 C 265.7245 16.2429 265.5255 15.693 265.1416 15.2432 C 264.7505 14.7933 264.2529 14.5648 263.6414 14.5648 C 263.1722 14.5648 262.4471 14.8719 261.4802 15.486 C 261.2953 15.6145 261.1105 15.8001 260.9185 16.0286 L 260.4422 16.5285 C 259.6459 17.3782 258.9919 18.3065 258.4657 19.3062 C 258.4373 19.1062 258.4231 18.9563 258.4231 18.8563 L 258.4444 18.4564 C 258.4444 15.7573 258.3947 14.0079 258.3093 13.2153 L 257.5344 13.1938 C 256.9799 14.1792 256.3044 14.979 255.5153 15.5788 C 254.9465 16.0001 253.8304 16.4999 252.1667 17.0783 L 252.0743 17.7638 C 252.3587 17.8852 252.7497 17.9852 253.2332 18.0566 C 254.065 18.178 254.584 18.3422 254.783 18.5493 C 254.9821 18.7635 255.1172 19.2562 255.174 20.0416 C 255.2309 20.8271 255.2594 23.7547 255.2594 28.8317 C 255.2594 29.7885 255.2096 30.3669 255.1172 30.5526 C 255.0461 30.6954 254.9394 30.7954 254.783 30.8668 L 252.7924 31.2024 L 251.3776 31.4737 C 251.2354 31.7308 251.1643 31.9164 251.1643 32.0378 L 251.2567 32.3877 L 255.2807 32.3877 L 255.2807 32.3877 Z" fill="#223546"/>
			</g>
		</g>
	</g>
</svg>