<?xml version="1.0" standalone="no"?>
<!-- Generator: Adobe Fireworks 10, Export SVG Extension by Aaron Beall (http://fireworks.abeall.com) . Version: 0.6.1  -->
<!DOCTYPE svg PUBLIC "-//W3C//DTD SVG 1.1//EN" "http://www.w3.org/Graphics/SVG/1.1/DTD/svg11.dtd">
<svg id="Untitled-Page%201" viewBox="0 0 18 20" style="background-color:#ffffff00" version="1.1"
	xmlns="http://www.w3.org/2000/svg" xmlns:xlink="http://www.w3.org/1999/xlink" xml:space="preserve"
	x="0px" y="0px" width="18px" height="20px"
>
	<g id="Layer%201">
		<g>
			<g>
				<path d="M 16.015 1.2501 L 16.015 5.4729 L 11.9436 5.4724 L 11.9436 5.4724 " stroke="#ffffff" stroke-width="2" fill="none"/>
			</g>
			<path d="M 9.2296 1 C 4.6752 0.9949 0 4.1507 0 10.5 C 0 16.8492 4.6752 20.005 9.2296 20 C 12.9314 19.9959 16.715 17.9021 18 13.7173 L 16.358 13.7173 C 15.1636 16.824 12.2319 18.388 9.2279 18.3913 C 5.3226 18.3956 1.5381 15.7637 1.5381 10.5 C 1.5381 5.2363 5.3226 2.6043 9.2279 2.6087 C 11.5287 2.6112 13.7864 3.5272 15.2544 5.3522 L 16.5734 4.4916 C 14.7921 2.1661 11.989 1.0031 9.2296 1 Z" fill="#ffffff"/>
		</g>
	</g>
</svg>